<?xml version="1.0" standalone="no"?>
<!DOCTYPE svg PUBLIC "-//W3C//DTD SVG 20010904//EN"
 "http://www.w3.org/TR/2001/REC-SVG-20010904/DTD/svg10.dtd">
<svg version="1.0" xmlns="http://www.w3.org/2000/svg"
 width="512.000000pt" height="512.000000pt" viewBox="0 0 512.000000 512.000000"
 preserveAspectRatio="xMidYMid meet">
<metadata>
Created by potrace 1.14, written by Peter Selinger 2001-2017
</metadata>
<g transform="translate(0.000000,512.000000) scale(0.100000,-0.100000)"
fill="#000000" stroke="none">
<path d="M2319 5115 c-1 -5 -1 -14 0 -19 1 -5 -6 -3 -15 5 -9 8 -18 14 -18 13
-19 -16 -45 -21 -56 -11 -10 9 -11 9 -6 0 8 -15 -33 -14 -53 1 -10 8 -13 8 -9
0 4 -5 -6 -15 -23 -21 -22 -8 -29 -8 -29 0 0 9 -2 9 -8 1 -4 -6 -22 -11 -40
-10 -19 1 -36 -3 -39 -8 -4 -5 0 -6 7 -1 7 5 11 4 8 -1 -4 -5 -25 -9 -47 -8
-23 0 -41 -2 -41 -6 0 -4 -6 -7 -12 -8 -7 0 -22 -3 -33 -6 -11 -2 -26 -5 -33
-5 -7 -1 -10 -5 -7 -11 3 -5 0 -7 -8 -4 -8 3 -31 -2 -52 -10 -21 -9 -46 -16
-57 -16 -10 0 -17 -4 -14 -9 4 -5 -5 -8 -19 -6 -14 1 -25 -2 -25 -7 0 -6 -7
-7 -16 -4 -10 4 -13 2 -8 -6 5 -8 2 -9 -10 -5 -10 4 -19 1 -22 -8 -3 -7 -12
-11 -20 -8 -8 3 -14 1 -14 -5 0 -6 -8 -8 -19 -5 -10 3 -22 0 -25 -6 -4 -6 -16
-11 -27 -11 -11 0 -22 -7 -25 -15 -4 -8 -10 -13 -14 -10 -4 3 -10 -2 -14 -10
-3 -8 -12 -12 -20 -9 -8 3 -17 0 -21 -5 -3 -6 -11 -9 -16 -6 -5 4 -9 1 -9 -5
0 -7 -7 -9 -16 -6 -12 5 -15 2 -10 -10 4 -12 1 -14 -13 -9 -11 3 -23 0 -27 -6
-5 -8 -3 -9 6 -4 8 5 11 4 6 -3 -3 -6 -15 -9 -26 -7 -12 2 -18 0 -15 -5 3 -5
-5 -12 -17 -16 -13 -4 -29 -14 -36 -23 -11 -13 -12 -13 -7 -1 4 8 -1 6 -9 -4
-9 -11 -16 -16 -16 -12 0 4 -13 -1 -29 -10 -17 -10 -28 -21 -25 -26 5 -7 -13
-12 -43 -11 -7 1 -10 -3 -7 -8 3 -5 0 -9 -6 -9 -6 0 -8 -5 -4 -12 4 -7 3 -8
-4 -4 -6 4 -20 -2 -30 -12 -10 -10 -26 -21 -35 -25 -9 -3 -17 -11 -17 -17 0
-6 -4 -8 -10 -5 -5 3 -10 2 -10 -4 0 -5 -9 -13 -20 -16 -11 -4 -18 -10 -15
-15 3 -5 -4 -12 -16 -15 -11 -4 -39 -25 -60 -46 -21 -21 -39 -36 -39 -32 0 4
-11 -8 -25 -27 -14 -19 -25 -31 -25 -27 0 4 -27 -20 -60 -53 -33 -33 -60 -65
-60 -70 0 -5 -5 -12 -12 -16 -7 -5 -8 -3 -3 6 5 9 4 11 -3 6 -7 -4 -12 -14
-12 -22 0 -8 -5 -14 -10 -14 -6 0 -15 -11 -22 -25 -6 -13 -15 -22 -19 -19 -5
3 -9 -2 -9 -11 0 -9 -4 -13 -10 -10 -5 3 -10 0 -10 -7 0 -11 -23 -41 -84 -110
-8 -9 -12 -19 -9 -21 3 -3 -4 -11 -15 -18 -11 -7 -18 -19 -15 -26 4 -9 0 -11
-11 -7 -11 4 -16 1 -16 -10 0 -17 -46 -97 -63 -107 -5 -4 -6 -12 -2 -19 5 -9
4 -11 -3 -6 -7 4 -12 2 -12 -4 0 -7 -9 -25 -21 -41 -11 -16 -17 -29 -12 -29 4
0 3 -4 -3 -8 -12 -8 -94 -173 -94 -190 0 -7 -4 -12 -8 -12 -5 0 -9 -6 -9 -12
0 -7 -8 -30 -17 -50 -10 -20 -18 -42 -20 -50 -1 -7 -5 -19 -9 -25 -5 -7 -10
-21 -12 -30 -2 -10 -8 -29 -13 -43 -5 -14 -10 -28 -11 -32 -1 -4 -11 -38 -22
-75 -11 -38 -22 -77 -24 -88 -3 -11 -7 -31 -10 -45 -4 -14 -8 -36 -11 -50 -2
-14 -7 -38 -11 -55 -4 -16 -8 -41 -10 -55 -2 -14 -5 -38 -8 -55 -2 -16 -7 -57
-10 -90 -3 -33 -7 -66 -10 -72 -2 -7 1 -13 8 -13 9 0 9 -2 0 -8 -10 -6 -11
-56 -8 -207 6 -261 7 -275 15 -275 4 0 7 -17 8 -37 0 -38 8 -106 12 -110 2 -2
3 -7 4 -12 0 -5 4 -12 8 -16 4 -4 4 -13 1 -21 -2 -7 0 -28 6 -46 6 -18 13 -46
16 -63 3 -16 7 -35 9 -42 1 -7 5 -16 9 -19 4 -4 7 -18 7 -31 0 -13 6 -23 13
-23 9 0 8 -3 -2 -9 -9 -6 -10 -11 -2 -15 6 -4 9 -12 6 -17 -4 -5 -1 -9 5 -9 7
0 10 -7 6 -15 -3 -8 -1 -15 5 -15 6 0 8 -4 4 -9 -3 -5 -1 -12 5 -16 5 -3 10
-17 10 -30 0 -13 6 -30 13 -37 6 -7 13 -20 15 -28 5 -24 61 -158 82 -195 10
-18 16 -36 13 -39 -4 -3 -2 -6 3 -6 6 0 16 -16 24 -35 8 -19 16 -35 20 -35 3
0 11 -15 18 -34 7 -18 21 -41 32 -51 11 -10 20 -26 20 -36 0 -10 6 -22 13 -26
7 -4 26 -29 42 -55 17 -27 33 -48 36 -48 4 0 12 -13 19 -30 7 -16 19 -30 28
-30 8 0 13 -3 9 -6 -3 -4 -1 -12 6 -19 7 -6 23 -27 37 -45 14 -19 38 -46 54
-62 16 -15 25 -28 20 -28 -5 0 -1 -5 9 -11 9 -6 15 -15 11 -20 -3 -5 -2 -9 3
-8 18 3 33 -2 33 -11 0 -5 15 -24 33 -41 17 -17 31 -36 29 -41 -1 -5 2 -7 8
-3 5 3 13 -1 16 -9 3 -9 13 -16 21 -16 8 0 11 -4 8 -10 -3 -5 1 -10 9 -10 8 0
23 -10 33 -23 10 -13 22 -24 28 -24 5 -1 12 -9 15 -18 3 -9 9 -16 13 -16 4 1
17 -8 30 -19 12 -12 29 -27 37 -35 26 -24 90 -65 101 -65 6 0 7 -4 4 -10 -3
-5 6 -12 20 -16 13 -3 22 -10 19 -15 -3 -5 7 -9 21 -9 14 0 23 -4 20 -10 -3
-5 6 -12 20 -16 13 -3 23 -10 20 -15 -3 -4 4 -6 15 -4 11 2 18 1 16 -4 -3 -4
12 -16 32 -26 20 -11 39 -22 42 -25 17 -17 43 -33 36 -23 -12 21 4 15 26 -10
11 -12 17 -16 13 -9 -3 6 -2 12 4 12 5 0 13 -9 16 -20 4 -11 11 -18 16 -14 6
3 18 -1 27 -8 28 -25 46 -33 37 -18 -5 8 7 3 25 -10 18 -13 30 -17 25 -9 -4 7
3 3 15 -10 16 -16 25 -20 28 -12 3 9 8 9 21 -2 9 -9 27 -17 41 -19 14 -2 24
-8 23 -14 -1 -5 12 -9 28 -8 16 1 29 -2 29 -8 0 -5 4 -7 9 -3 5 3 12 1 16 -5
4 -6 11 -8 16 -5 5 4 9 1 9 -6 0 -8 4 -8 15 1 12 10 15 10 15 -3 0 -10 7 -15
19 -12 11 2 22 -2 24 -9 3 -8 19 -11 41 -10 20 2 36 -1 36 -5 0 -5 7 -12 16
-15 10 -4 13 -2 8 7 -6 8 -3 8 9 -1 9 -8 21 -11 27 -7 5 3 10 1 10 -6 0 -8 4
-8 15 1 11 9 15 9 15 1 0 -7 5 -9 12 -5 7 5 9 2 5 -9 -4 -11 -2 -14 8 -10 8 3
12 10 8 17 -5 8 -3 8 8 0 8 -6 22 -10 32 -9 9 2 17 0 17 -5 0 -4 10 -6 22 -2
11 3 19 1 16 -4 -4 -5 7 -9 23 -10 18 -1 26 3 22 10 -4 7 -1 7 7 -1 7 -6 19
-9 26 -6 8 3 14 0 14 -5 0 -7 10 -8 30 -2 17 5 28 5 25 0 -2 -4 4 -10 15 -13
11 -3 18 -1 14 4 -3 5 2 9 11 9 9 0 13 -5 10 -10 -3 -6 -1 -10 4 -10 6 0 11 5
11 10 0 6 5 10 11 10 5 0 7 -5 4 -10 -3 -6 -1 -10 4 -10 6 0 11 6 11 13 0 9 2
9 8 1 11 -19 402 -15 409 4 5 11 7 11 14 1 6 -10 11 -10 22 -1 7 7 17 9 20 5
4 -3 13 0 22 7 13 11 15 10 9 -6 -5 -18 -5 -18 9 -1 11 14 16 15 20 5 4 -10 6
-10 6 0 1 10 6 10 22 1 13 -7 19 -7 15 -1 -3 6 -2 13 4 17 5 3 10 1 10 -6 0
-8 4 -8 15 1 12 10 15 10 15 -1 0 -12 2 -12 9 -1 4 8 19 12 32 10 13 -1 23 2
22 7 -1 6 18 10 43 9 24 -1 47 3 51 9 4 6 1 7 -7 2 -7 -5 -11 -4 -8 1 4 5 25
9 47 8 26 0 40 3 38 10 -3 7 9 11 30 10 24 -2 33 2 29 11 -3 9 5 12 30 9 27
-2 34 1 34 14 0 13 2 14 9 3 6 -9 11 -10 15 -2 4 6 17 11 30 11 12 0 27 5 33
11 6 6 17 11 24 13 28 5 64 19 69 27 5 7 34 16 63 18 5 1 5 6 1 13 -4 6 -3 8
4 5 15 -10 43 3 35 17 -4 6 0 6 9 -2 13 -10 18 -10 24 -1 5 8 3 9 -6 4 -9 -5
-11 -4 -6 4 4 7 13 10 19 8 7 -2 18 3 26 10 7 8 20 12 27 9 7 -3 16 0 20 6 5
7 2 8 -6 3 -9 -5 -11 -4 -6 3 4 7 14 12 22 12 9 0 22 7 30 15 8 8 22 11 32 8
15 -6 16 -5 2 12 -14 17 -13 18 2 12 10 -3 24 1 33 10 9 8 18 13 21 10 3 -3
14 3 25 14 11 11 24 17 30 14 5 -4 8 -1 7 7 -2 8 4 12 16 10 11 -2 15 1 11 7
-3 7 2 11 14 11 12 0 20 3 18 8 -1 4 2 8 6 9 5 1 17 11 27 23 10 12 21 21 24
21 20 -3 26 0 21 9 -3 6 0 10 8 10 8 0 17 7 21 15 3 8 12 15 21 15 8 0 15 5
15 11 0 6 7 9 14 6 10 -4 13 -1 9 9 -3 7 0 14 7 14 6 0 35 23 63 50 28 28 58
50 67 50 13 0 13 1 0 10 -8 5 -10 10 -4 10 16 0 114 97 107 104 -4 3 1 6 10 6
9 0 17 6 17 14 0 8 9 18 21 21 11 4 18 9 15 12 -3 3 0 11 7 18 7 7 19 22 27
34 8 11 20 21 28 21 7 0 10 5 7 10 -3 6 -1 10 5 10 6 0 8 5 5 10 -3 6 1 13 9
16 8 3 18 14 21 25 4 11 11 17 16 14 5 -4 9 -2 9 4 0 12 61 104 73 109 4 2 7
10 7 18 0 8 4 14 10 14 5 0 12 11 16 25 3 14 10 25 15 25 5 0 9 7 9 15 0 8 3
15 8 15 4 0 18 23 31 50 14 28 29 50 35 50 5 0 6 3 3 6 -7 7 21 64 36 75 5 3
9 10 9 15 2 24 11 44 20 44 5 0 7 4 4 9 -3 4 3 27 14 49 11 23 20 46 20 52 0
5 4 10 8 10 5 0 9 6 10 13 2 24 9 46 50 157 6 18 5 14 22 70 20 67 21 73 23
98 0 12 4 22 8 22 4 0 6 11 4 25 -1 14 2 25 6 25 5 0 9 16 9 36 0 19 3 33 8
31 4 -3 7 15 6 39 0 24 2 44 5 44 4 0 6 15 6 33 0 17 2 36 4 42 24 48 20 509
-5 675 -2 19 -6 50 -7 68 -1 17 -6 32 -10 32 -5 0 -7 6 -4 13 2 6 1 21 -4 33
-4 11 -10 38 -13 59 -4 21 -14 63 -22 93 -9 30 -18 62 -19 71 -2 9 -4 18 -6
21 -1 3 -3 10 -4 15 -1 6 -5 17 -8 25 -20 46 -35 99 -30 104 4 3 2 6 -3 6 -6
0 -16 17 -23 38 -13 38 -33 86 -57 136 -8 16 -14 35 -14 43 0 7 -4 13 -10 13
-5 0 -12 11 -16 25 -3 13 -12 29 -19 35 -8 6 -11 18 -8 26 3 7 -2 17 -11 20
-9 3 -13 10 -10 15 3 5 -2 12 -10 15 -9 3 -13 10 -10 15 3 5 0 9 -7 9 -7 0
-10 3 -6 6 3 4 -1 13 -9 21 -8 8 -12 18 -9 23 3 4 -2 11 -11 14 -9 4 -14 9
-11 12 5 5 -10 27 -41 60 -7 8 -11 14 -7 14 3 0 1 6 -5 13 -41 49 -49 61 -43
70 3 5 2 7 -4 4 -5 -4 -16 5 -23 18 -7 14 -17 25 -22 25 -4 0 -8 5 -8 10 0 6
-12 22 -26 35 -15 14 -24 25 -20 25 4 0 -5 12 -21 28 -15 15 -31 26 -36 24 -5
-2 -7 6 -4 17 3 11 1 19 -3 18 -12 -3 -99 90 -92 98 4 4 3 6 -3 5 -21 -5 -36
0 -30 10 3 5 -5 15 -19 21 -14 7 -23 16 -20 20 3 5 0 9 -6 9 -6 0 -8 5 -4 13
5 7 1 7 -12 -3 -10 -8 -16 -11 -12 -6 8 10 -15 36 -32 36 -6 0 -9 4 -6 8 6 11
-40 53 -48 45 -3 -4 -6 -1 -6 5 0 6 -9 14 -20 17 -11 3 -20 13 -20 20 0 9 -6
12 -17 8 -11 -4 -14 -3 -9 5 4 7 1 12 -9 12 -8 0 -18 7 -21 15 -4 8 -10 12
-15 9 -5 -3 -9 2 -9 11 0 9 -4 13 -10 10 -5 -3 -10 -1 -10 4 0 6 -3 10 -7 10
-20 -3 -34 2 -28 11 3 6 -1 10 -9 10 -9 0 -16 5 -16 11 0 5 -5 7 -10 4 -6 -3
-13 1 -16 9 -3 9 -10 14 -14 11 -5 -3 -15 2 -24 11 -9 8 -20 12 -26 9 -5 -3
-10 1 -10 10 0 9 -4 13 -10 10 -5 -3 -10 -1 -10 4 0 6 -7 11 -15 11 -7 0 -18
7 -23 16 -5 9 -11 15 -13 13 -9 -5 -78 25 -73 33 3 4 -4 8 -16 8 -12 0 -18 4
-15 10 3 6 -1 7 -9 4 -9 -3 -16 -1 -16 5 0 6 -7 8 -17 4 -11 -4 -14 -3 -9 5 5
8 -1 12 -18 12 -14 0 -30 8 -35 18 -8 13 -11 14 -11 2 -1 -10 -4 -9 -10 5 -6
13 -9 15 -9 5 -1 -12 -3 -12 -10 -2 -4 7 -18 14 -29 15 -12 1 -22 5 -22 10 0
5 -7 7 -15 3 -10 -3 -15 1 -16 12 0 9 -3 12 -5 6 -4 -9 -13 -8 -34 3 -17 8
-34 12 -40 8 -5 -3 -10 -3 -10 2 0 4 -11 13 -25 20 -14 6 -23 7 -20 3 3 -5 -8
-2 -25 6 -16 9 -34 13 -40 9 -6 -3 -13 1 -16 9 -3 9 -10 13 -15 10 -6 -3 -17
0 -26 8 -10 7 -14 8 -10 1 8 -13 -18 -12 -30 2 -4 4 -2 5 5 1 6 -4 12 -3 12 3
0 6 -12 8 -30 5 -20 -4 -30 -2 -30 5 0 9 -5 9 -21 0 -17 -9 -20 -8 -14 2 6 9
4 11 -7 6 -9 -3 -24 1 -35 8 -12 8 -25 10 -33 5 -9 -5 -20 -4 -29 3 -12 10
-13 9 -6 -3 7 -12 6 -13 -6 -3 -9 7 -41 14 -72 15 -31 2 -57 7 -57 12 0 4 -6
6 -14 3 -7 -3 -19 0 -26 6 -9 9 -11 9 -7 1 4 -7 0 -15 -9 -18 -8 -3 -13 -2
-10 3 9 14 -20 21 -33 8 -9 -9 -14 -9 -19 0 -5 7 -58 11 -169 11 -112 0 -161
-3 -156 -11 3 -6 1 -7 -6 -3 -20 13 -61 14 -61 2 0 -6 -5 -4 -10 4 -5 8 -10
11 -11 5z m422 -445 c167 -14 313 -44 487 -102 674 -223 1189 -770 1377 -1462
95 -349 96 -733 4 -1084 -113 -430 -348 -804 -683 -1086 -275 -232 -593 -386
-947 -461 -106 -23 -158 -28 -350 -32 -327 -8 -480 13 -748 103 -778 259
-1348 969 -1430 1783 -65 632 145 1247 579 1695 176 182 354 316 559 420 365
185 745 260 1152 226z"/>
<path d="M880 2785 l0 -855 215 0 214 0 3 413 3 414 30 48 c87 140 296 122
361 -30 15 -35 17 -88 18 -440 l2 -400 212 -3 213 -2 -3 487 c-3 478 -4 489
-26 548 -32 86 -79 150 -145 201 -68 51 -134 74 -234 81 -177 13 -327 -58
-403 -191 l-30 -51 0 318 0 317 -215 0 -215 0 0 -855z"/>
<path d="M3288 3235 c-180 -46 -302 -179 -360 -394 -29 -106 -31 -373 -4 -476
51 -194 165 -329 318 -377 211 -65 442 -5 538 140 l31 47 -3 -141 c-3 -137 -4
-141 -32 -179 -42 -55 -103 -79 -201 -78 -93 0 -170 28 -210 74 l-24 29 -206
0 -205 0 6 -27 c13 -57 53 -133 94 -177 115 -125 296 -187 545 -187 315 0 532
107 628 309 l32 67 3 678 3 677 -216 0 -215 0 0 -107 0 -107 -32 54 c-41 67
-118 131 -195 160 -74 29 -214 36 -295 15z m363 -350 c57 -20 102 -65 131
-129 20 -45 23 -67 23 -176 0 -109 -3 -131 -23 -175 -44 -95 -115 -145 -207
-145 -92 0 -163 50 -207 145 -20 44 -23 66 -23 175 0 109 3 131 23 176 54 120
165 170 283 129z"/>
<path d="M2463 2724 c-103 -61 -125 -202 -45 -288 96 -103 254 -78 313 49 24
51 24 99 0 150 -50 108 -171 148 -268 89z"/>
</g>
</svg>
