<?xml version="1.0" standalone="no"?>
<!DOCTYPE svg PUBLIC "-//W3C//DTD SVG 20010904//EN"
 "http://www.w3.org/TR/2001/REC-SVG-20010904/DTD/svg10.dtd">
<svg version="1.0" xmlns="http://www.w3.org/2000/svg"
 width="1000.000000pt" height="1000.000000pt" viewBox="0 0 1000.000000 1000.000000"
 preserveAspectRatio="xMidYMid meet">
<metadata>
Created by potrace 1.14, written by Peter Selinger 2001-2017
</metadata>
<g transform="translate(0.000000,1000.000000) scale(0.100000,-0.100000)"
fill="#000000" stroke="none">
<path d="M0 5000 l0 -5000 5000 0 5000 0 0 5000 0 5000 -5000 0 -5000 0 0
-5000z m5381 4130 c398 -31 908 -163 1290 -335 302 -135 676 -362 897 -543 52
-42 115 -94 141 -115 129 -105 396 -385 541 -566 361 -452 654 -1056 784
-1621 76 -332 106 -603 106 -965 0 -456 -68 -895 -195 -1270 -99 -293 -123
-349 -255 -610 -256 -503 -581 -915 -1019 -1289 -112 -95 -313 -245 -431 -320
-25 -16 -70 -45 -100 -64 -30 -20 -158 -88 -285 -152 -418 -211 -871 -353
-1295 -405 -175 -21 -952 -21 -1125 0 -261 32 -570 107 -810 195 -33 12 -90
32 -127 46 -106 38 -260 108 -423 193 -610 318 -1136 789 -1516 1357 -125 186
-154 234 -237 394 -243 466 -407 1007 -451 1490 -14 146 -14 728 -1 880 34
389 171 898 341 1265 227 493 512 901 886 1265 315 307 614 525 985 719 463
241 1032 410 1514 450 147 12 631 12 785 1z"/>
<path d="M1720 5435 l0 -1665 410 0 409 0 4 768 c3 845 1 806 68 931 67 127
174 190 337 199 205 10 338 -81 405 -281 21 -61 21 -81 25 -839 l3 -778 410 0
409 0 0 813 c0 498 -4 856 -11 926 -40 426 -240 694 -594 796 -130 38 -323 45
-455 17 -257 -53 -432 -185 -544 -409 -20 -40 -41 -73 -46 -73 -7 0 -10 222
-10 630 l0 630 -410 0 -410 0 0 -1665z"/>
<path d="M6550 6333 c-229 -21 -449 -137 -597 -314 -76 -90 -172 -276 -208
-404 -100 -351 -93 -821 16 -1131 115 -327 330 -534 634 -612 87 -23 121 -26
265 -26 175 -1 266 13 380 56 155 60 285 165 360 291 19 31 38 57 43 57 5 0 7
-118 5 -262 l-3 -263 -34 -63 c-82 -150 -216 -209 -458 -200 -93 4 -146 11
-195 27 -77 25 -175 93 -207 145 l-23 36 -394 0 c-448 0 -406 10 -379 -93 42
-163 169 -332 323 -431 175 -113 353 -178 602 -217 139 -23 517 -17 661 9 145
26 304 79 433 143 115 58 186 111 276 205 95 101 138 171 187 311 l28 78 3
1308 3 1307 -408 -2 -408 -3 -3 -212 c-1 -123 -6 -213 -12 -213 -5 0 -28 37
-52 82 -104 201 -327 353 -568 388 -62 9 -194 11 -270 3z m596 -692 c143 -53
248 -197 289 -398 31 -150 17 -389 -30 -524 -77 -216 -273 -339 -491 -308
-182 26 -313 156 -376 374 -20 70 -23 102 -23 255 0 198 11 255 71 379 60 123
136 192 254 230 87 28 218 25 306 -8z"/>
<path d="M4895 5354 c-164 -53 -275 -212 -262 -377 11 -126 83 -235 199 -298
60 -32 68 -34 163 -34 90 0 105 3 156 29 71 35 139 104 176 176 25 49 28 65
28 155 0 95 -2 103 -34 163 -40 74 -105 135 -179 169 -68 32 -177 39 -247 17z"/>
</g>
</svg>
